:SAMPLES-PER-SECOND 30
:FULLY-SPECIFIED
:DEGREES
719
root  14.1755 40.7537 8.42094 26.5672 85.4697 25.7928
RightUpLeg  -5.21304 -11.1455 -8.7914
RightLeg  9.15579 -4.92963 1.88274
RightFoot  -0.695227 -0.0709043 0.734942
RightToes  0.000481921 0.542163 -0.142578
Spine  9.58139 -1.12882 -1.6078
Spine1  3.43986 -1.92105 2.86919
HEad  -3.3486 10.3502 -4.59578
LeftShoulder1  7.94023 -11.3022 -46.7619
LeftArm  -26.4534 45.952 -40.4354
LeftForeArm  170.861 -48.8052 -168.496
LeftHand  -0.25398 0.0180481 5.50724
RightShoulder  3.9525 6.04019 35.428
RightArm  -3.77229 -34.8699 46.1506
RightForeArm  164.909 51.5074 166.951
RightHand  -0.0801456 -0.141747 -1.74066
LeftUpLeg  0.627004 6.39688 4.558
LeftLeg  1.16983 20.6993 -4.36814
LeftFoot  0.58012 0.321334 -3.11148
LeftToes  1.06247e-005 4.65869e-005 -8.65511e-006
720
root  14.1618 40.7483 8.3889 28.8799 85.6261 28.1801
RightUpLeg  -5.03885 -11.1297 -9.01448
RightLeg  9.04387 -5.12383 1.96988
RightFoot  -0.725725 -0.0711369 0.745342
RightToes  0.000481921 0.542163 -0.142578
Spine  8.66341 -1.04927 -0.372077
Spine1  3.87893 -1.52954 1.83847
HEad  -2.24544 8.92274 -5.17689
LeftShoulder1  9.2421 -12.9687 -48.973
LeftArm  -21.8024 41.9582 -33.7123
LeftForeArm  171.108 -49.1469 -168.379
LeftHand  -0.25398 0.0180481 5.50724
RightShoulder  4.54255 6.98712 37.256
RightArm  -2.86177 -28.5293 41.1468
RightForeArm  165.952 51.8057 166.895
RightHand  -0.124994 -0.0836755 -2.77121
LeftUpLeg  0.500519 6.45696 4.48742
LeftLeg  1.49523 20.4608 -4.40084
LeftFoot  0.432808 0.297772 -2.91381
LeftToes  1.06247e-005 4.65869e-005 -8.65511e-006
721
root  14.1067 40.7398 8.37018 33.3618 86.109 32.8857
RightUpLeg  -4.65311 -11.1819 -9.26308
RightLeg  8.89325 -5.57372 2.09038
RightFoot  -0.769557 -0.06511 0.668419
RightToes  0.000481921 0.542163 -0.142578
Spine  7.53903 -1.14724 0.793255
Spine1  5.11889 -1.41376 1.07112
HEad  -1.27306 7.67195 -6.43457
LeftShoulder1  10.3561 -14.3234 -50.7247
LeftArm  -18.5691 33.9705 -27.2362
LeftForeArm  171.874 -49.5784 -168.264
LeftHand  -0.25398 0.0180481 5.50724
RightShoulder  5.38968 8.43288 39.0664
RightArm  -3.32469 -19.7019 36.4364
RightForeArm  162.015 52.8882 166.103
RightHand  -0.273638 -0.409355 -6.17502
LeftUpLeg  0.497419 6.56535 4.50589
LeftLeg  1.67306 19.7827 -4.51183
LeftFoot  0.387728 0.279534 -2.74418
LeftToes  1.06247e-005 4.65869e-005 -8.65511e-006
722
root  14.01 40.7394 8.36198 38.0343 86.5665 37.8011
RightUpLeg  -4.31324 -11.2293 -9.39152
RightLeg  8.70845 -6.01631 2.17844
RightFoot  -0.669355 -0.0580384 0.576588
RightToes  0.000481921 0.542163 -0.142578
Spine  6.8799 -1.2113 1.63124
Spine1  6.15389 -1.32204 0.480542
HEad  -0.409971 6.6324 -7.14059
LeftShoulder1  10.5836 -14.8495 -50.3446
LeftArm  -17.9719 22.4031 -24.8992
LeftForeArm  171.328 -50.776 -167.741
LeftHand  -0.25398 0.0180481 5.50724
RightShoulder  5.94647 9.46658 39.7334
RightArm  -4.1155 -9.24776 33.8688
RightForeArm  153.313 54.7224 164.524
RightHand  -0.551468 0.443057 -11.0423
LeftUpLeg  0.573664 6.58235 4.53334
LeftLeg  1.57394 19.2279 -4.58135
LeftFoot  0.534702 0.274807 -2.68082
LeftToes  1.06247e-005 4.65869e-005 -8.65511e-006
723
root  13.8713 40.7486 8.36079 45.5708 87.0247 45.5843
RightUpLeg  -4.00666 -11.2536 -9.51306
RightLeg  8.47647 -6.56603 2.25187
RightFoot  -0.463755 -0.0559547 0.555544
RightToes  0.000481921 0.542163 -0.142578
Spine  6.69592 -1.27705 2.2501
Spine1  6.41829 -1.19733 -0.230899
HEad  0.915212 5.87029 -6.79215
LeftShoulder1  10.0507 -14.9452 -47.5475
LeftArm  -18.9729 8.19753 -25.5565
LeftForeArm  168.677 -53.4855 -166.335
LeftHand  -0.25398 0.0180481 5.50724
RightShoulder  5.97129 9.87935 38.5556
RightArm  -5.21025 2.8875 33.7199
RightForeArm  143.163 57.1324 162.342
RightHand  -0.814652 1.29356 -14.4161
LeftUpLeg  0.656394 6.43155 4.45163
LeftLeg  1.24892 18.7914 -4.58158
LeftFoot  0.890596 0.269625 -2.60754
LeftToes  1.06247e-005 4.65869e-005 -8.65511e-006
724
root  13.6877 40.7578 8.35826 58.2742 87.4361 58.6833
RightUpLeg  -3.60198 -11.3167 -9.73641
RightLeg  8.28426 -7.17212 2.33958
RightFoot  -0.245975 -0.0568914 0.580973
RightToes  0.000481921 0.542163 -0.142578
Spine  6.67677 -1.27736 2.64833
Spine1  6.35331 -1.03361 -0.812918
HEad  2.791 5.34414 -5.96481
LeftShoulder1  9.24097 -15.164 -43.0488
LeftArm  -22.0199 -8.24066 -26.686
LeftForeArm  164.466 -58.5349 -163.325
LeftHand  -0.25398 0.0180481 5.50724
RightShoulder  5.45201 9.83774 34.9048
RightArm  -8.13652 17.4666 35.0612
RightForeArm  134.634 60.9447 158.979
RightHand  -1.19038 2.41275 -17.6664
LeftUpLeg  0.787462 6.23272 4.3002
LeftLeg  0.95499 18.2881 -4.55784
LeftFoot  1.33147 0.258388 -2.43547
LeftToes  1.06247e-005 4.65869e-005 -8.65511e-006
725
root  13.4836 40.7635 8.34622 71.7538 87.6658 72.5042
RightUpLeg  -3.31266 -11.3898 -9.93958
RightLeg  8.08794 -7.67154 2.46768
RightFoot  0.0425295 -0.0543381 0.55502
RightToes  0.000481921 0.542163 -0.142578
Spine  6.69883 -1.12189 2.92827
Spine1  6.16566 -0.766579 -1.16826
HEad  4.47401 4.91305 -5.20103
LeftShoulder1  8.20701 -15.4574 -37.1541
LeftArm  -27.4052 -25.8548 -26.4799
LeftForeArm  157.983 -66.2599 -156.682
LeftHand  -0.25398 0.0180481 5.50724
RightShoulder  4.39941 9.25423 28.4553
RightArm  -13.7124 33.5855 36.2371
RightForeArm  129.047 67.3137 152.062
RightHand  -2.57943 7.32697 -23.4306
LeftUpLeg  0.793961 6.11088 4.19432
LeftLeg  0.788579 17.8258 -4.56244
LeftFoot  1.73299 0.246523 -2.252
LeftToes  1.06247e-005 4.65869e-005 -8.65511e-006
726
root  13.2916 40.7688 8.32266 81.3875 87.7804 82.1032
RightUpLeg  -3.41443 -11.3863 -9.99437
RightLeg  7.77958 -8.08694 2.6282
RightFoot  0.446611 -0.0480681 0.472763
RightToes  0.000481921 0.542163 -0.142578
Spine  6.67333 -0.947264 3.61441
Spine1  5.64445 -0.346338 -2.07843
HEad  5.64745 4.43956 -4.336
LeftShoulder1  6.6882 -15.2563 -29.5545
LeftArm  -34.6053 -42.7388 -23.5724
LeftForeArm  125.089 -77.3387 -122.502
LeftHand  -0.25398 0.0180481 5.50724
RightShoulder  2.9679 7.77358 19.8508
RightArm  -22.0318 48.8275 35.4388
RightForeArm  105.165 76.9319 120.658
RightHand  -4.73459 13.7364 -28.7131
LeftUpLeg  0.442454 6.04236 4.13568
LeftLeg  0.64488 17.5624 -4.60111
LeftFoot  2.07359 0.238987 -2.13724
LeftToes  1.06247e-005 4.65869e-005 -8.65511e-006
727
root  13.1015 40.7709 8.29062 86.9315 87.8191 87.4654
RightUpLeg  -3.76194 -11.3472 -9.98231
RightLeg  7.53635 -8.36391 2.70875
RightFoot  0.841915 -0.044613 0.434177
RightToes  0.000481921 0.542163 -0.142578
Spine  6.75254 -0.873389 4.99986
Spine1  4.85985 0.229977 -4.06733
HEad  6.85594 3.75221 -3.23412
LeftShoulder1  4.80393 -14.3832 -20.4003
LeftArm  -45.2238 -58.1434 -15.0112
LeftForeArm  33.4218 -67.6071 -27.8454
LeftHand  -0.25398 0.0180481 5.50724
RightShoulder  1.58976 5.46081 10.5231
RightArm  -34.6258 62.6268 29.81
RightForeArm  26.3247 69.6641 33.5409
RightHand  -5.62778 16.3658 -29.8983
LeftUpLeg  -0.0428468 5.97611 4.04426
LeftLeg  0.512044 17.4934 -4.64871
LeftFoot  2.38354 0.231472 -2.02774
LeftToes  1.06247e-005 4.65869e-005 -8.65511e-006
728
root  12.8985 40.7702 8.25661 84.6888 87.7355 85.282
RightUpLeg  -4.10692 -11.3377 -9.99994
RightLeg  7.58398 -8.27322 2.61123
RightFoot  1.14709 -0.0464465 0.476259
RightToes  0.000481921 0.542163 -0.142578
Spine  7.50408 -0.762116 6.43876
Spine1  3.85658 0.873111 -6.16729
HEad  8.16233 2.88241 -2.47585
LeftShoulder1  2.87439 -12.9893 -10.1033
LeftArm  -65.1033 -70.0114 6.64542
LeftForeArm  16.3616 -31.6734 -4.80985
LeftHand  -0.25398 0.0180481 5.50724
RightShoulder  0.576619 2.66708 1.02727
RightArm  -61.1335 74.8487 9.39687
RightForeArm  9.77901 35.6462 5.952
RightHand  -4.3554 14.6206 -25.0374
LeftUpLeg  -0.248037 5.92639 3.90486
LeftLeg  0.391615 17.6798 -4.72693
LeftFoot  2.70541 0.220727 -1.87066
LeftToes  1.06247e-005 4.65869e-005 -8.65511e-006
